<svg width="27" height="26" viewBox="0 0 27 26" fill="none" xmlns="http://www.w3.org/2000/svg">
<g id="Group 36">
<path id="Vector" d="M20.4517 18.0272L23.7358 21.3571L20.4499 24.6879L21.7488 25.9999L26.3356 21.3571L21.7488 16.7142L20.4517 18.0272ZM17.5418 18.0272L14.2577 21.3571L17.5437 24.6879L16.2447 25.9999L11.6579 21.3571L16.2447 16.7142L17.5418 18.0272ZM18.9968 3.71423H20.8315V11.1428H18.9968V3.71423ZM15.3274 3.71423H17.1621V11.1428H15.3274V3.71423ZM11.6579 11.1428H9.82322C8.81138 11.1428 7.98851 10.3099 7.98851 9.28566V5.57138C7.98851 4.54716 8.81138 3.71423 9.82322 3.71423H11.6579C12.6698 3.71423 13.4926 4.54716 13.4926 5.57138V9.28566C13.4926 10.3099 12.6698 11.1428 11.6579 11.1428ZM9.82322 5.57138V9.28566H11.6579V5.57138H9.82322ZM4.31909 3.71423H6.1538V11.1428H4.31909V3.71423Z" fill="#89D0D1"/>
<path id="Vector_2" d="M7.9885 24.1429H2.48437C1.47253 24.1429 0.649658 23.3099 0.649658 22.2857V1.85714C0.649658 0.832928 1.47253 0 2.48437 0H22.6662C23.678 0 24.5009 0.832928 24.5009 1.85714V13H22.6662V1.85714H2.48437V22.2857H7.9885V24.1429Z" fill="#89D0D1"/>
</g>
</svg>
